<?xml version="1.0" encoding="utf-8"?>
<!-- Generator: Adobe Illustrator 23.1.0, SVG Export Plug-In . SVG Version: 6.00 Build 0)  -->
<svg version="1.1" xmlns="http://www.w3.org/2000/svg" xmlns:xlink="http://www.w3.org/1999/xlink" x="0px" y="0px"
	 viewBox="0 0 1366.2 188.9" style="enable-background:new 0 0 1366.2 188.9;" xml:space="preserve">
<style type="text/css">
	.st0{fill-rule:evenodd;clip-rule:evenodd;fill:#97C3C5;}
	.st1{fill-rule:evenodd;clip-rule:evenodd;fill:#BBD9DA;}
	.st2{fill-rule:evenodd;clip-rule:evenodd;fill:#7EB5B7;}
</style>
<g id="Layer_2">
	<path class="st0" d="M592.1,141.7c-155.9,24.6-376.9-48-449.9-51.6C86,87.4,25.1,120.8,0,136.4v52.2h1366V70.8
		C864.4,39.5,746.2,117.4,592.1,141.7z"/>
</g>
<g id="Layer_3">
	<path class="st1" d="M1366.2,0v188.9H64.9c21.7-10.7,46.1-19.3,70.4-21.1c72.9-5.3,301.1,40.1,452.8-3.1S848.7,28.3,1365.7,0
		C1365.9,0,1366,0,1366.2,0z"/>
</g>
<g id="Layer_1">
	<path class="st2" d="M1366.2,40.5v148.4H0.2v-12.1c24.7-17.1,83.1-52.9,138.8-53.1c73.1-0.2,297.6,60.7,452,28
		C744.2,119.2,858.5,34.7,1366.2,40.5z"/>
</g>
</svg>
