<svg xmlns="http://www.w3.org/2000/svg" viewBox="0 0 23 23"><defs><style>.cls-1{fill:none;stroke:#698189;stroke-miterlimit:10;stroke-width:2px;}</style></defs><title>Asset 1</title><g id="Layer_2" data-name="Layer 2"><g id="Layer_1-2" data-name="Layer 1"><g id="Page-1"><g id="Core"><g id="extension"><path id="Shape" class="cls-1" d="M19.5,11H18V7a2,2,0,0,0-2-2H12V3.5a2.5,2.5,0,0,0-5,0V5H3A2,2,0,0,0,1,7v3.8H2.5a2.7,2.7,0,0,1,0,5.4H1V20a2,2,0,0,0,2,2H6.8V20.5a2.7,2.7,0,0,1,5.4,0V22H16a2,2,0,0,0,2-2V16h1.5a2.5,2.5,0,0,0,0-5Z"/></g></g></g></g></g></svg>