<svg xmlns="http://www.w3.org/2000/svg" viewBox="0 0 425.5 492.75"><defs><style>.cls-1{fill:#0f1689;}</style></defs><title>Asset 1</title><g id="Layer_2" data-name="Layer 2"><g id="Layer_1-2" data-name="Layer 1"><path class="cls-1" d="M100.3,117.39c-.6-.5-1.2-1.1-1.8-1.7C85.9,103.59,76.1,89.59,70.2,73a37.22,37.22,0,0,1-2.7-14.4,6.6,6.6,0,0,1,.1-1.4c.4-6.4,4.8-9.7,11.1-8.2a28,28,0,0,1,5.7,2.2c6.9,3.5,12.5,8.6,17.7,14.2a113,113,0,0,1,21.7,33.4,3.55,3.55,0,0,0,.4.9,4.68,4.68,0,0,0,.6.5,177.33,177.33,0,0,1,81-24.9c-.2-.9-.3-1.5-.4-2.2a115.12,115.12,0,0,1-2.7-37,86.15,86.15,0,0,1,4.4-21.8,31.59,31.59,0,0,1,5.5-10.2,14.32,14.32,0,0,1,3.2-2.8,7.08,7.08,0,0,1,8-.1,17.05,17.05,0,0,1,5.8,6.7,55,55,0,0,1,5.3,14.7,114.28,114.28,0,0,1,2.1,33,96.54,96.54,0,0,1-3.5,19.9c7.1,1.3,14.2,2.3,21.1,4a183.08,183.08,0,0,1,20.4,6,191.1,191.1,0,0,1,19.8,8.6c6.3,3.2,12.4,6.9,18.7,10.5a10.74,10.74,0,0,0,.7-1.5,109.63,109.63,0,0,1,32.9-46.8,38.93,38.93,0,0,1,11.8-6.9,15.25,15.25,0,0,1,3.7-.8c6.3-.7,8.9,3.2,9.4,7.9a30.34,30.34,0,0,1-.8,10.4,88.94,88.94,0,0,1-10.7,24.7c-6.8,11-14.9,20.9-25.1,28.8a8.18,8.18,0,0,0-1.1,1,178.58,178.58,0,0,1,26.6,30.9l-1.7.3H327.4a4.13,4.13,0,0,1-3.2-1.7,147.36,147.36,0,0,0-88.2-46.5,139.59,139.59,0,0,0-30.3-1.2A146.31,146.31,0,0,0,123.2,135a141.4,141.4,0,0,0-17,15.8,4.84,4.84,0,0,1-3.9,1.8c-10.1-.1-20.2,0-30.4,0H69.7c.6-2.4,6.8-10.9,13.9-18.6C89.1,128.59,94.7,123.19,100.3,117.39Z"/><path class="cls-1" d="M358.3,344.19a172.52,172.52,0,0,1-24,27.2c.7.6,1.3,1.1,1.9,1.6a108.83,108.83,0,0,1,33.7,48.1,35.35,35.35,0,0,1,2.2,14.4,15.14,15.14,0,0,1-.7,3.7,7.21,7.21,0,0,1-8.2,5,24.06,24.06,0,0,1-6.8-2,54.83,54.83,0,0,1-9.2-5.8,107.07,107.07,0,0,1-32.9-46.7c-.2-.5-.4-1-.7-1.9a185.65,185.65,0,0,1-25,14,181.23,181.23,0,0,1-26.7,9.7,193.56,193.56,0,0,1-28.3,5.4,20.69,20.69,0,0,1,.4,2.2,111.61,111.61,0,0,1,3,36.4,82.36,82.36,0,0,1-4.4,22.5,69.65,69.65,0,0,1-4.2,8.7,13.31,13.31,0,0,1-2.3,3c-4,4.1-8.7,4.1-12.6-.1a31.16,31.16,0,0,1-3.9-5.6c-3.1-5.8-4.7-12.1-5.8-18.5a117.29,117.29,0,0,1-1.4-26.5,95.8,95.8,0,0,1,2.9-19.2c.1-.5.3-1.1.4-1.6,0-.1-.1-.3-.2-.7a176.25,176.25,0,0,1-81-25c-.4.9-.8,1.7-1.1,2.4a110,110,0,0,1-30.9,41.4,40.2,40.2,0,0,1-12,7,12.06,12.06,0,0,1-6.5.7,6.91,6.91,0,0,1-5.4-4.5c-1.4-3.4-1.2-7-.7-10.5a56.08,56.08,0,0,1,4.3-14.3,113.51,113.51,0,0,1,26.5-37.8c.5-.4.9-.9,1.4-1.3a4.35,4.35,0,0,0,.4-.7A180,180,0,0,1,72,343.59c1-.1,1.6-.2,2.3-.2h31.5a5.06,5.06,0,0,1,3.7,1.6,145.74,145.74,0,0,0,39.4,28.9,140.06,140.06,0,0,0,49.7,14.8q70.65,6.9,121.6-42.9a7.14,7.14,0,0,1,6-2.4c9.8.1,19.6,0,29.4,0h2.5Z"/><path class="cls-1" d="M314.5,194.09a72.35,72.35,0,0,0,8.1-.1c3-.3,5.1.8,7.3,2.8,12.6,11.6,25.4,23.1,38.1,34.6.6.6,1.3,1.1,2.1,1.9.8-.7,1.5-1.2,2.2-1.9q19.65-17.85,39.2-35.8a5.43,5.43,0,0,1,4.2-1.6c3.2.1,6.4,0,9.8,0v105.4c-1.7.5-24.9.6-27.6.1v-53.4l-.5-.3c-9,8.2-18,16.4-27.2,24.8-9.2-8.3-18.3-16.5-27.5-24.7l-.5.2v53.6H314.8C314.3,297.89,314,200,314.5,194.09Z"/><path class="cls-1" d="M61.4,194.19H88.7c.6,1.8.7,103,.1,105.5H61.5c-.2-6.7,0-13.4-.1-20.1v-20H27.6v39.7c-2.1.6-25.3.7-27.6.1V194.19H27.5v37.2c2,.6,30.9.7,33.9.1v-37.3Z"/><path class="cls-1" d="M121.4,299.69V194.49c1.6-.5,61.5-.7,65.5-.2v22.4a24.52,24.52,0,0,1-2.7.2h-35v17.4h33.3v23.2h-33c-.6,2-.7,15.8-.3,19.6a22.82,22.82,0,0,0,2.7.2h35v22.3l-65.5.1Z"/><path class="cls-1" d="M218.1,299.69c-.5-2.8-.4-103.6.1-105.5h27.2V272c1.2.1,2.1.1,3,.2h35.2v27.6Z"/></g></g></svg>