<?xml version="1.0" encoding="utf-8"?>
<!-- Generator: Adobe Illustrator 23.1.0, SVG Export Plug-In . SVG Version: 6.00 Build 0)  -->
<svg version="1.1" id="Layer_1" xmlns="http://www.w3.org/2000/svg" xmlns:xlink="http://www.w3.org/1999/xlink" x="0px" y="0px"
	 width="518.7px" height="383.7px" viewBox="0 0 518.7 383.7" style="enable-background:new 0 0 518.7 383.7;" xml:space="preserve"
	>
<style type="text/css">
	.st0{fill:#8CD5DA;}
	.st1{fill:#769B9D;fill-opacity:0.5333;}
	.st2{fill:#7EB5B7;}
	.st3{fill:url(#path942_1_);}
	.st4{fill:#A5A5A5;}
	.st5{fill:#AE7C47;}
	.st6{fill:#079DA7;}
	.st7{fill:#FFFFFF;}
	.st8{fill:none;stroke:#698189;stroke-width:6.4205;stroke-linecap:round;stroke-linejoin:round;stroke-miterlimit:11.3386;}
	.st9{fill:#FFFFFF;fill-opacity:0.9507;}
	.st10{fill:#4B4B4B;fill-opacity:0.949;}
	.st11{fill:#4B4B4B;fill-opacity:0.9507;}
</style>
<g id="g1090">
	<g id="g934">
		<path id="path932" class="st0" d="M27.5,268.8c-3.5,8.3-4.4,19.8-10.6,25c-8.1,6.2-9,6.1-17.4,9.1c10.9,4,16.9,6.1,28.8,6.8
			c14,0.3,22.8-3.7,31.8-9.8l-7.6-24.3L27.5,268.8z"/>
	</g>
	<g id="layer33">
		<path id="path1093" class="st1" d="M27.5,268.8l25,6.8l7.6,24.2l-4.7,2.7c-6.1-3.4-9.4-1.9-18.4-10.2c-10.4-12-7.2-12.4-10.8-18.6
			L27.5,268.8z"/>
	</g>
	<g id="g940">
		<path id="path936" class="st0" d="M13.9,188.2c1-32.4,8.1-58.6,41.2-95.9c36.6-32.3,69.7-34.9,93.2-38c23.4-3.2,76.3,0.9,102.4,9
			c26.6,10.1,45.8,26.2,61,44.6c12.8,18.1,30.5,49,39.6,61.6c11.7,15,12.8,15.9,20.4,24.6c7.2,8.7,19.3,16.9,24.7,17.5
			c5.3,0.4,15.7-3.9,17.1-11c-13.7-4.8-22.5-12.6-25.9-22.5c-3.4-9.8-4.1-19.7-2.2-40.2c24.2,9.8,15.7,12.4,21.2,16.9
			c4.8,4.3,9.2,5.7,14.8,7.7c6.6,1.7,14.5-2,16.2,1.6c1.7,3.9,0.7,10.4,5,11.7c3.9,1.5,7.8-6.1,13.2-8c6.8-0.5,15.2,5.4,21.4,7
			c5.4,1.9,13.3,0.2,18.4-4.3c4.2-6.2-1.6-3,21.8-4.3c1.2,11.9,1.3,22.8-2.1,27.3c-7.9,10-9.8,12.6-24.1,17.1
			c-14.1,2.7-25.6,4.3-54.6-3.7c-5.9,14.3-8.5,20.2-18.8,34.3c-8.9,12.7-30.1,24.2-41.2,29.5c-10.8,5.3-31.4,11-43.4,16.6
			c-13,3.9-63.6,17.7-97,22.6c-31.1,5.6-109.3,7.4-134.4,3.6c-25.3-4.5-43.8-7.4-57.9-21.4c-13.9-15-19.6-27-22.5-40.2
			C16.7,234.9,13,216.2,13.9,188.2L13.9,188.2z"/>
	</g>
	<g id="layer36">
		<path id="path1104" class="st2" d="M81.1,73.5c7.4,6,4.1,17.6,10.2,21.4c4.3,2.5,15.1,3.8,27.3,0.8c9.1-3.1,13.4-5.9,15-11.7
			c1.2-19.4,0-18.5-4.6-21.4l-22.3-2.8L81.1,73.5z"/>
	</g>
	<g id="g950">
		
			<linearGradient id="path942_1_" gradientUnits="userSpaceOnUse" x1="-525.3936" y1="-100.0208" x2="-516.3091" y2="-104.3203" gradientTransform="matrix(2.8346 0 0 2.8346 1551.4272 340.565)">
			<stop  offset="0" style="stop-color:#CCCCCC"/>
			<stop  offset="1" style="stop-color:#FFFFFF"/>
		</linearGradient>
		<path id="path942" class="st3" d="M95,90c-4.5-8.1-7.7-13.6-10.2-20.1c-2.2-5.2-5.4-15.3-7.3-24.7C74.3,32.4,66.4,14.9,60.9-0.2
			C74.3,11.2,85.4,17,101.1,33.9c9,9.7,13.1,15.5,28,28.8c0.6,10.6,0.1,17.5-6.8,23.5C113.7,91.2,105.8,92.3,95,90L95,90z"/>
	</g>
	<g id="layer37">
		<path id="path1107" class="st4" d="M89.1,79.3c5.1,0.1,9.8,0.2,14.7-1.1c6.9-2.3,9.8-6.9,13-11.7c-4,4.1-8.2,7.7-13.9,8.4
			c-5.3,0.5-10.5,0.5-15.6,0.4L89.1,79.3z"/>
		<path id="path1109" class="st4" d="M116.5,50.7c-2.2,2.7-3.8,5.7-6.9,8c-1.8,1.2-4.7,0.8-7.3,0.9c2.3-0.7,4.6-1.3,6.2-2.7
			c2.8-2.6,4.3-5.7,5.2-9.1L116.5,50.7z"/>
		<path id="path1111" class="st4" d="M78.8,51c5.4-0.1,10.7-0.5,15.8-2.5c6.3-2.9,8-6.4,10.6-9.8c-3.4,2.6-6.7,5.5-11.2,7.1
			c-5.7,2-11.2,1.9-16.3,0.8L78.8,51z"/>
		<path id="path1113" class="st4" d="M71.6,27.2c3.2-0.4,7.6-0.6,8.8-1.4c2.7-1.6,4.5-3.6,6.3-5.6l0.6,0.5c-0.8,3.4-3.1,5.5-5.7,7.3
			c-1.4,0.9-4.5,0.8-9.9-0.3L71.6,27.2z"/>
	</g>
	<g id="layer35">
		<path id="path1101" class="st2" d="M95.2,312.7c0.4-1.8-0.3-2.5,1.4-5.7c5.6-6.6,12.1-9.3,24-10.3c12.4-1,24.4-1.1,34.8-1.1
			c4-0.1,17.6,2.4,34.3,4.4c12.1,0.8,28.4,0.9,41-1.1c18.2-2.9,27.1-7.4,39.3-12.7l24.2,12l-31.9,7c-27.1,6.7-45.8,7.1-69.5,9
			c-21.8,1.4-30.4,1.2-65.9,1.1C107.1,314.6,105.8,314.1,95.2,312.7L95.2,312.7z"/>
		<path id="path1115" class="st2" d="M231,58.6c-1.5,3-2.3,6.4-2.3,9.9c0,11,7.7,19.9,17.2,19.9s17.2-8.9,17.2-19.8
			c-3.9-1.9-8.1-3.7-12.4-5.4C245.2,61.5,238.4,60,231,58.6z"/>
		<ellipse id="path1117" class="st2" cx="251.8" cy="101.3" rx="4.2" ry="6.1"/>
		<path id="path1119" class="st2" d="M277.7,76.9c-2,1.9-3.2,5.5-3.2,9.4c0,6,2.8,10.8,6.3,10.8l0,0c3.5,0,6.3-4.8,6.3-10.8l0,0
			c0-1-0.1-2-0.3-3C283.9,81.1,280.9,79,277.7,76.9z"/>
		<ellipse id="path1121" class="st2" cx="267.7" cy="102.3" rx="5.7" ry="8.1"/>
		<ellipse id="path1123" class="st2" cx="259.6" cy="112.1" rx="2.5" ry="3.6"/>
		<path id="path1125" class="st2" d="M299.6,94.6c-3.4,3.6-5.4,8.8-5.4,14.3c0,10.5,7,18.9,15.7,18.9l0,0c4.3,0,8.3-2.1,11.3-5.8
			c-3.3-5.2-6.5-10-9.5-14.2C308,103.3,304,98.8,299.6,94.6z"/>
		<ellipse id="path1127" class="st2" cx="285.1" cy="112.3" rx="6.4" ry="7.6"/>
		<ellipse id="path1129" class="st2" cx="287" cy="130.1" rx="3" ry="4.5"/>
		<ellipse id="path1131" class="st2" cx="300.5" cy="142" rx="7.4" ry="11.6"/>
		<ellipse id="path1133" class="st2" cx="292.7" cy="163.1" rx="4.9" ry="5.7"/>
		<path id="path1135" class="st2" d="M324.5,127.2c-0.7,2.2-1.1,4.8-1.1,7.3c0,8.5,4.1,15.3,9.1,15.3l0,0c1.7,0,3.3-0.8,4.7-2.3
			C333.1,141,328.8,134,324.5,127.2z"/>
		<ellipse id="path1137" class="st2" cx="320.5" cy="162.5" rx="5.5" ry="7.4"/>
		<path id="path1139" class="st2" d="M340.3,152.4c-1.8,1.5-2.9,4.2-2.9,7.2c0,4.6,2.5,8.3,5.7,8.3c1.9,0,3.7-1.4,4.7-3.7
			C345.6,160.9,343,156.8,340.3,152.4z"/>
		<ellipse id="path1141" class="st2" cx="316.8" cy="147.5" rx="4.7" ry="6.1"/>
		<ellipse id="path1143" class="st2" cx="313.7" cy="173.3" rx="4" ry="4.5"/>
		<path id="path1145" class="st2" d="M395.9,142.7c-2.6,2.5-4,5.8-4,9.3c0,7.3,6.1,13.1,13.6,13.1l0,0c4,0,7.8-1.7,10.4-4.7
			c-3.3-1.3-6.3-2.9-9.4-5.7C402.1,151.1,406.9,148.7,395.9,142.7z"/>
		<path id="path1147" class="st2" d="M433.5,162.4c-2.8,0-6.6,0.8-10.2,0.4c-1.2,1.9-1.9,4.1-1.9,6.4c0,6.2,4.7,11.2,10.6,11.2l0,0
			c3.7,0,7.1-2.1,9.1-5.4c-2.5-2.3-2-7.5-3.5-10.8C437,162.7,435.5,162.4,433.5,162.4z"/>
		<path id="path1149" class="st2" d="M457.2,167.8c-0.4,0-0.9,0-1.3,0c-2,0.7-3.8,2.2-5.5,3.7c0.7,7,5.7,12.4,11.6,12.4
			c5.3,0,10-4.3,11.3-10.4C468.2,171.3,462.3,168,457.2,167.8z"/>
		<path id="path1151" class="st2" d="M511.9,166.5c-16.8,0.6-12.4-1.5-16.2,4.1c-1.7,1.5-3.7,2.7-5.8,3.6
			c0.9,7.8,5.7,13.6,11.2,13.6c6.3,0,11.4-7.3,11.4-16.3C512.4,169.7,512.2,168.1,511.9,166.5z"/>
		<ellipse id="path1153" class="st2" cx="484.2" cy="182.6" rx="3.6" ry="5.1"/>
		<ellipse id="path1155" class="st2" cx="446.5" cy="179.8" rx="3.8" ry="4.1"/>
		<ellipse id="path1157" class="st2" cx="465.4" cy="187.7" rx="3" ry="3.4"/>
		<ellipse id="path1159" class="st2" cx="480" cy="192" rx="3.2" ry="4.4"/>
		<ellipse id="path1162" class="st2" cx="407.5" cy="172" rx="4.2" ry="4.7"/>
		<ellipse id="path1165" class="st2" cx="396.5" cy="170.3" rx="3" ry="4.2"/>
		<ellipse id="path1167" class="st2" cx="415.6" cy="167.6" rx="2.5" ry="3"/>
		<ellipse id="path1169" class="st2" cx="419.6" cy="179.7" rx="4.2" ry="4.9"/>
		<ellipse id="path1171" class="st2" cx="456.7" cy="190.2" rx="3" ry="3.6"/>
		<ellipse id="path1174" class="st2" cx="490.8" cy="198.1" rx="4.9" ry="7"/>
	</g>
	<g id="layer38">
		<g id="layer39">
			<path id="path999" class="st5" d="M90.5,344.6c1,27.7,15.6,37.2,29,38.9l87.6-8.1c7.1-0.6,7.3-7.6,8.5-13.6l65.3-12.4
				c3.8-0.9,2.4-5.5,3-8.7l68.1-13.8c4.2,6.8,8.8,11,14.4,8.9c11.1-3.6,7.9-19.1,5.1-34.2c-2.3-18.5-9.3-29.9-18.1-28.4
				c-7.5,1.6-6.8,9.6-7.3,15.4L278,302.9c-1.5-3.3-2.9-7-6.1-6.2l-64.4,7.2c-2.8-5.9-4.4-13.4-12.3-12.9l-83,6.2
				C98.6,302.3,89.6,313.1,90.5,344.6L90.5,344.6z"/>
		</g>
		<g id="layer40">
			
				<ellipse id="path1005" transform="matrix(0.9976 -6.918018e-02 6.918018e-02 0.9976 -23.3269 8.474)" class="st6" cx="110.7" cy="341" rx="15.1" ry="35.8"/>
		</g>
		<g id="layer41">
			<path id="path1008" class="st7" d="M108.9,306.2c-6.4,0-11.7,10.9-11.7,24.4l0,0c0,3.7,0.4,7.4,1.2,10.8
				c0.4-11.3,7.1-20.2,15.1-20.2c2.2,0,4.4,0.7,6.4,2C118.4,313.1,113.9,306.3,108.9,306.2z"/>
			<ellipse id="path1044" class="st7" cx="117.6" cy="330.6" rx="3.1" ry="5.8"/>
		</g>
	</g>
	<g id="layer34">
		<path id="path1096" class="st1" d="M248,272.8L248,272.8c-1.5,2.7-1.3,3.4-1.6,5.1c-0.3,3.1,22.3,18.7,38,22.1l9.8-1.8L248,272.8z
			"/>
		<path id="path1098" class="st1" d="M312.3,248.2c2,0.7,4.7,0.5,5.8,2.1c2.5,3.5,4.7,11.2,7.1,16.9c2,4.9,6.9,11.9,13.1,17.7
			l-5.1,2.4L312,270.4L312.3,248.2z"/>
	</g>
	<g id="g1036">
		<path id="path1034" class="st0" d="M248,272.8c13,11.4,16.5,14.3,37.5,24.6c14.3,6.4,49.4,5.8,69.6,1.1
			c-43.7-34.1-33.3-36.3-42.9-50.4"/>
	</g>
	<g id="g1056">
		<path id="path1054" class="st8" d="M63.1,261.5c5.3,6.3,29.7,4.6,41.5,4.7c11.2,0.1,56.7,1.5,60-7"/>
	</g>
	<g id="g1084">
		<ellipse id="ellipse1076" class="st9" cx="43.4" cy="233.7" rx="15.8" ry="17.9"/>
		<ellipse id="ellipse1078" class="st9" cx="189.7" cy="230.9" rx="22.7" ry="22"/>
		<ellipse id="ellipse1080" class="st10" cx="47.8" cy="239.1" rx="4.1" ry="4.1"/>
		<ellipse id="ellipse1082" class="st11" cx="188" cy="237.9" rx="4.1" ry="4.1"/>
	</g>
</g>
</svg>
