<svg xmlns="http://www.w3.org/2000/svg" viewBox="0 0 102.13 101.39"><defs><style>.cls-1{fill:#0e9fdc;}.cls-2{fill:#fe3855;}</style></defs><title>Asset 1</title><g id="Layer_2" data-name="Layer 2"><g id="Layer_1-2" data-name="Layer 1"><path class="cls-1" d="M83.43,48.1a25.16,25.16,0,0,0,14.2-18.5A51.12,51.12,0,0,0,65.23,1.4,38.63,38.63,0,0,1,72,25.6,32.08,32.08,0,0,1,83.43,48.1ZM22.43,35A25.45,25.45,0,0,0,.53,43.1a51.16,51.16,0,0,0,12.7,41.6A39.5,39.5,0,0,1,20,60.2,32.57,32.57,0,0,1,22.43,35Zm5.7,38.4a25.33,25.33,0,0,0,3.6,24.2,51.07,51.07,0,0,0,38.6,0,38.66,38.66,0,0,1-19.9-14.7A32.57,32.57,0,0,1,28.13,73.4Zm30.1-54.7A25.23,25.23,0,0,0,43,0,50.83,50.83,0,0,0,7.93,23.1a39.47,39.47,0,0,1,24.5.6A32.37,32.37,0,0,1,58.23,18.7ZM81,63a31.81,31.81,0,0,1-15.7,16.6,25.14,25.14,0,0,0,22.9,5.8,51.22,51.22,0,0,0,13.9-35A38.75,38.75,0,0,1,81,63Z"/><circle class="cls-2" cx="51.13" cy="50.4" r="16"/></g></g></svg>