<svg xmlns="http://www.w3.org/2000/svg" viewBox="0 0 23.14 24"><defs><style>.cls-1{fill:#5ab552;}</style></defs><title>Asset 1</title><g id="Layer_2" data-name="Layer 2"><g id="Layer_1-2" data-name="Layer 1"><path class="cls-1" d="M5.4,3.4a8.26,8.26,0,0,1,1.3-.7,11.14,11.14,0,0,1,3-.8l1.1,1.3-.5,1.3A10.21,10.21,0,0,0,7.4,5.6l-.1.2L7.1,4.1,5.4,3.4Zm-.5.3,1.8.7.2,1.7A6.35,6.35,0,0,0,4.6,8.9c0,.1-.1.2-.1.3L3.2,7.6l-2,.5a12.09,12.09,0,0,1,2-3A11.51,11.51,0,0,1,4.9,3.7ZM16.7,15.8a4.67,4.67,0,0,0,.5-1l1.9,2.3,3.3-.7a10.09,10.09,0,0,1-.7,1.5,14.6,14.6,0,0,1-2.6,3.4,9.5,9.5,0,0,1-3.8,2.1h-.1l-2.4-2,.6-2.8h.1a7.2,7.2,0,0,0,3.2-2.8Zm4.1-11,.6.9a11.4,11.4,0,0,1,1.5,4A12.37,12.37,0,0,1,23,14a11.7,11.7,0,0,1-.5,2l-3.3.7-2-2.4a6.16,6.16,0,0,0,.1-2.7,5.42,5.42,0,0,0-1.5-2.9l3.5-.4,1.5-3.5ZM.9,8.6,3,8.2,4.2,9.7a6.52,6.52,0,0,0-.3,3.4,3.55,3.55,0,0,0,.2,1l-2.2-.5L.3,15.5A10.9,10.9,0,0,1,0,12.9,15.69,15.69,0,0,1,.9,8.6Zm3.5,5.9a7.89,7.89,0,0,0,1.4,2.3,6.53,6.53,0,0,0,1.6,1.3L5.2,19.4l.1,2.9a15.58,15.58,0,0,1-2-1.6A9.67,9.67,0,0,1,1,17.1C.9,16.7.7,16.3.6,16l1.6-2,2.2.5Zm3.4,3.9a8.8,8.8,0,0,0,1.5.5,6.89,6.89,0,0,0,3.5-.1l-.6,2.8,2.4,2a15,15,0,0,1-3.7.4,11.68,11.68,0,0,1-4.2-.9,9.29,9.29,0,0,1-1-.5l-.1-2.9Zm12.6-14L19.1,7.9l-3.6.4L15.2,8a8.27,8.27,0,0,0-4-1.6h-1l1.3-3.2L8.7.1A20.08,20.08,0,0,1,11.2,0c.5,0,1,.1,1.5.1a11.8,11.8,0,0,1,2,.4,10.46,10.46,0,0,1,3.8,1.9A11.9,11.9,0,0,1,20.4,4.4Z"/></g></g></svg>