<svg xmlns="http://www.w3.org/2000/svg" viewBox="0 0 1489.8 1698.2"><defs><style>.cls-1{fill:#698189;}</style></defs><title>Asset 1</title><g id="Layer_2" data-name="Layer 2"><g id="Layer_1-2" data-name="Layer 1"><g id="shopping_bag_2" data-name="shopping bag 2"><path class="cls-1" d="M1489.7,1540.2,1439,394.4c-.9-84.6-70.3-153.2-155.6-153.2H1025.5C1004.5,106.3,886.6,0,744.7,0S484.8,106.3,463.9,241.3H206.3c-85.2,0-154.6,68.6-155.5,153.2L.1,1540.2c0,1-.1,2-.1,2.9,0,85.5,69.8,155.1,155.6,155.1H1334.2c85.8,0,155.6-69.6,155.6-155.1A27.15,27.15,0,0,1,1489.7,1540.2ZM744.7,132.1c68.7,0,126.9,46.1,145.6,109.1H599C617.7,178.3,675.9,132.1,744.7,132.1Zm589.4,1434.2H155.6c-12.8,0-22.9-9.6-23.4-22.1l50.7-1145c0-1,.1-2.1.1-3.1,0-12.7,10.3-22.8,23.4-22.8H460V614.8a66,66,0,1,0,132,0V373.3H896V614.8a66,66,0,1,0,132,0V373.3h255.3c13.2,0,23.5,10.1,23.5,22.8,0,1,0,2,.1,3l50.7,1145.1C1357.1,1556.6,1347,1566.3,1334.1,1566.3Z"/></g></g></g></svg>